<svg width="31" height="34" viewBox="0 0 31 34" fill="none" xmlns="http://www.w3.org/2000/svg">
<path d="M2.17365 6.75068C1.26628 15.7455 4.04899 22.4545 7.39815 26.9492C9.1295 29.2728 11.0112 31.0045 12.6121 32.1627C13.412 32.7413 14.1533 33.1851 14.7829 33.4892C15.3646 33.7701 15.9869 34 16.5 34C17.0131 34 17.6354 33.7701 18.2171 33.4892C18.8467 33.1851 19.588 32.7413 20.3879 32.1627C21.3926 31.4358 22.508 30.483 23.6273 29.2998L22.1024 27.697C21.0793 28.7791 20.0658 29.644 19.1652 30.2955C18.4484 30.8141 17.8147 31.189 17.3168 31.4295C17.0675 31.5499 16.8636 31.631 16.7087 31.6803C16.5812 31.7208 16.5156 31.7304 16.5 31.7326C16.4844 31.7304 16.4188 31.7208 16.2913 31.6803C16.1364 31.631 15.9325 31.5499 15.6832 31.4295C15.1853 31.189 14.5516 30.8141 13.8348 30.2955C12.4023 29.2592 10.6841 27.6829 9.09597 25.5516C6.28182 21.7749 3.87307 16.2554 4.18385 8.86351L2.17365 6.75068Z" fill="#6E00FF" fill-opacity="0.2"/>
<path d="M26.0092 22.1866C28.1044 18.1403 29.448 12.7814 28.5707 6.02732C28.5218 5.65073 28.2613 5.32118 27.8903 5.197C26.542 4.74565 24.2638 4.00609 22.0143 3.38053C19.7142 2.74093 17.5996 2.26667 16.5 2.26667C15.4004 2.26667 13.2858 2.74093 10.9857 3.38053C10.2283 3.59117 9.46756 3.81473 8.74021 4.03586L7.00328 2.21025C8.06327 1.87718 9.25098 1.51828 10.4341 1.18926C12.6832 0.563854 15.0718 0 16.5 0C17.9282 0 20.3168 0.563854 22.5659 1.18926C24.8653 1.8287 27.182 2.58104 28.5448 3.03723C29.682 3.41793 30.5422 4.44888 30.7075 5.7207C31.6952 13.3252 30.0628 19.3551 27.593 23.8512L26.0092 22.1866Z" fill="#6E00FF" fill-opacity="0.2"/>
<path fill-rule="evenodd" clip-rule="evenodd" d="M28.4524 30L0 1.54761L1.54761 0L30 28.4524L28.4524 30Z" fill="#6E00FF" fill-opacity="0.2"/>
</svg>
