<svg width="42" height="42" viewBox="0 0 42 42" fill="none" xmlns="http://www.w3.org/2000/svg">
<path d="M0 10.5C0 7.60051 2.35051 5.25 5.25 5.25H36.75C39.6495 5.25 42 7.6005 42 10.5V31.5C42 34.3995 39.6495 36.75 36.75 36.75H5.25C2.35051 36.75 0 34.3995 0 31.5V10.5ZM5.25 7.875C3.80025 7.875 2.625 9.05025 2.625 10.5V11.0694L21 22.0944L39.375 11.0694V10.5C39.375 9.05025 38.1997 7.875 36.75 7.875H5.25ZM39.375 14.1306L27.0163 21.5458L39.375 29.1512V14.1306ZM39.2864 32.1789L24.4803 23.0674L21 25.1556L17.5197 23.0674L2.71363 32.1789C3.01283 33.2996 4.03502 34.125 5.25 34.125H36.75C37.965 34.125 38.9872 33.2996 39.2864 32.1789ZM2.625 29.1512L14.9837 21.5458L2.625 14.1306V29.1512Z" fill="#6E00FF" fill-opacity="0.2"/>
</svg>
